<?xml version="1.0" encoding="UTF-8"?>
<svg version="1.1" viewBox="0 0 1000 1000" width="1280" height="1280" xmlns="http://www.w3.org/2000/svg">
<path transform="translate(0)" d="m0 0h1e3v1e3h-1e3z" fill="#FEFEFE"/>
<path transform="translate(680,181)" d="m0 0h51v346l-3 21-5 20-7 20-10 21-12 19-11 14-12 13-9 9-11 9-14 10-17 10-17 8-16 6-24 6-20 3h-40l-26-4-21-6-20-8-23-12-17-12-13-11-11-10-7-8-12-15-11-17-10-19-9-24-6-25-2-13-2-29-4-11-6-9-7-6-11-5-4-1h-15l-10 3-9 6-8 9-4 9-2 12-1 1h-51v-9l4-20 7-16 8-12 11-12 10-8 14-8 18-6 15-2h11l14 2 16 5 15 8 9 7 9 8 9 12 8 15 5 16 2 16 1 18 4 22 7 21 8 17 12 18 12 14 8 8 17 13 16 9 15 7 19 6 16 3 9 1h26l20-3 21-6 18-8 14-8 12-9 10-9 12-12 11-15 10-18 8-20 5-20 2-16z" fill="#00589E"/>
<path transform="translate(563,282)" d="m0 0h52v235l-3 16-6 16-9 14-9 10-7 7-15 10-15 6-11 3-7 1h-20l-16-3-15-6-12-7-11-9-7-7-9-13-8-17-4-17-1-13 1-158h51l1 164 4 13 7 9 7 6 12 5 13 1 12-3 8-4 8-7 5-8 3-9z" fill="#00579E"/>
<path transform="translate(680,181)" d="m0 0h51v327h-51z" fill="#0096C3"/>
<path transform="translate(563,282)" d="m0 0h52v226h-51v6h-1z" fill="#0096C3"/>
<path transform="translate(431,350)" d="m0 0h51v158h-51z" fill="#0096C3"/>
<path transform="translate(383,725)" d="m0 0h11l13 4 9 7 7 8 4 9 1 4v16l-4 11-7 9-7 6-8 4-9 2h-9l-11-3-10-6-7-7-6-12-1-4v-16l4-11 6-8 8-7 8-4z" fill="#00589E"/>
<path transform="translate(659,725)" d="m0 0h11l13 4 8 6 7 7 5 10 2 14-2 11-6 12-9 9-10 5-9 2h-9l-13-4-9-6-7-8-5-11-1-4v-14l4-11 6-9 8-7 11-5z" fill="#00589E"/>
</svg>
